<mxfile host="Electron" agent="Mozilla/5.0 (Windows NT 10.0; Win64; x64) AppleWebKit/537.36 (KHTML, like Gecko) draw.io/28.1.2 Chrome/138.0.7204.243 Electron/37.4.0 Safari/537.36" version="28.1.2">
  <diagram name="Page-1" id="V4Xmx8-2ra13LYcRRimI">
    <mxGraphModel dx="1892" dy="626" grid="1" gridSize="10" guides="1" tooltips="1" connect="1" arrows="1" fold="1" page="1" pageScale="1" pageWidth="850" pageHeight="1100" math="0" shadow="0">
      <root>
        <mxCell id="0" />
        <mxCell id="1" parent="0" />
        <mxCell id="T2E0EPtnHiAVH1xd0ist-1" value="&lt;font style=&quot;&quot;&gt;&lt;b style=&quot;&quot;&gt;&lt;font style=&quot;font-size: 18px;&quot;&gt;Integration Model&lt;/font&gt; &lt;/b&gt;&lt;/font&gt;&lt;font&gt;(How to tables are related)&lt;/font&gt;" style="text;html=1;align=center;verticalAlign=middle;whiteSpace=wrap;rounded=1;fillColor=#d5e8d4;strokeColor=#82b366;gradientColor=#97d077;" parent="1" vertex="1">
          <mxGeometry x="-210" y="40" width="330" height="50" as="geometry" />
        </mxCell>
        <mxCell id="T2E0EPtnHiAVH1xd0ist-2" value="&lt;font style=&quot;font-size: 14px;&quot;&gt;crm_cust_info&lt;/font&gt;" style="swimlane;fontStyle=0;childLayout=stackLayout;horizontal=1;startSize=30;horizontalStack=0;resizeParent=1;resizeParentMax=0;resizeLast=0;collapsible=1;marginBottom=0;whiteSpace=wrap;html=1;rounded=1;fillColor=#dae8fc;strokeColor=#6c8ebf;swimlaneLine=1;" parent="1" vertex="1">
          <mxGeometry x="150" y="310" width="170" height="110" as="geometry" />
        </mxCell>
        <mxCell id="T2E0EPtnHiAVH1xd0ist-3" value="&lt;b&gt;&lt;font style=&quot;font-size: 13px;&quot;&gt;cst_id&lt;/font&gt;&lt;/b&gt;" style="text;strokeColor=#6c8ebf;fillColor=none;align=left;verticalAlign=middle;spacingLeft=4;spacingRight=4;overflow=hidden;points=[[0,0.5],[1,0.5]];portConstraint=eastwest;rotatable=0;whiteSpace=wrap;html=1;rounded=1;shadow=0;" parent="T2E0EPtnHiAVH1xd0ist-2" vertex="1">
          <mxGeometry y="30" width="170" height="30" as="geometry" />
        </mxCell>
        <mxCell id="8Cmp22PP6JHMid2Gr0Us-15" value="&lt;b&gt;&lt;font style=&quot;font-size: 13px;&quot;&gt;cst_key&lt;/font&gt;&lt;/b&gt;" style="text;strokeColor=none;fillColor=none;align=left;verticalAlign=middle;spacingLeft=4;spacingRight=4;overflow=hidden;points=[[0,0.5],[1,0.5]];portConstraint=eastwest;rotatable=0;whiteSpace=wrap;html=1;rounded=1;" parent="T2E0EPtnHiAVH1xd0ist-2" vertex="1">
          <mxGeometry y="60" width="170" height="30" as="geometry" />
        </mxCell>
        <mxCell id="oE6MfMjiElKP3dV24xXb-1" value="&lt;font style=&quot;font-size: 16px;&quot;&gt;&lt;b&gt;Customer&lt;/b&gt;&lt;/font&gt;" style="text;html=1;strokeColor=#82b366;fillColor=#d5e8d4;align=center;verticalAlign=middle;whiteSpace=wrap;overflow=hidden;" vertex="1" parent="T2E0EPtnHiAVH1xd0ist-2">
          <mxGeometry y="90" width="170" height="20" as="geometry" />
        </mxCell>
        <mxCell id="T2E0EPtnHiAVH1xd0ist-6" value="&lt;font style=&quot;font-size: 13px;&quot;&gt;Customer Information&lt;/font&gt;" style="text;html=1;align=center;verticalAlign=middle;whiteSpace=wrap;rounded=0;" parent="1" vertex="1">
          <mxGeometry x="160" y="280" width="150" height="30" as="geometry" />
        </mxCell>
        <mxCell id="T2E0EPtnHiAVH1xd0ist-7" value="&lt;font style=&quot;font-size: 14px;&quot;&gt;crm_prd_info&lt;/font&gt;" style="swimlane;fontStyle=0;childLayout=stackLayout;horizontal=1;startSize=30;horizontalStack=0;resizeParent=1;resizeParentMax=0;resizeLast=0;collapsible=1;marginBottom=0;whiteSpace=wrap;html=1;rounded=1;fillColor=#dae8fc;strokeColor=#6c8ebf;" parent="1" vertex="1">
          <mxGeometry x="150" y="180" width="170" height="80" as="geometry" />
        </mxCell>
        <mxCell id="T2E0EPtnHiAVH1xd0ist-8" value="&lt;b&gt;&lt;font style=&quot;font-size: 13px;&quot;&gt;prd_key&lt;/font&gt;&lt;/b&gt;" style="text;strokeColor=none;fillColor=none;align=left;verticalAlign=middle;spacingLeft=4;spacingRight=4;overflow=hidden;points=[[0,0.5],[1,0.5]];portConstraint=eastwest;rotatable=0;whiteSpace=wrap;html=1;" parent="T2E0EPtnHiAVH1xd0ist-7" vertex="1">
          <mxGeometry y="30" width="170" height="30" as="geometry" />
        </mxCell>
        <mxCell id="oE6MfMjiElKP3dV24xXb-6" value="&lt;font style=&quot;font-size: 16px;&quot;&gt;&lt;b&gt;Product&lt;/b&gt;&lt;/font&gt;" style="text;html=1;strokeColor=#b85450;fillColor=#f8cecc;align=center;verticalAlign=middle;whiteSpace=wrap;overflow=hidden;" vertex="1" parent="T2E0EPtnHiAVH1xd0ist-7">
          <mxGeometry y="60" width="170" height="20" as="geometry" />
        </mxCell>
        <mxCell id="T2E0EPtnHiAVH1xd0ist-9" value="&lt;font style=&quot;font-size: 13px;&quot;&gt;Current &amp;amp; History Product Information&lt;/font&gt;" style="text;html=1;align=center;verticalAlign=middle;whiteSpace=wrap;rounded=0;" parent="1" vertex="1">
          <mxGeometry x="120" y="150" width="230" height="30" as="geometry" />
        </mxCell>
        <mxCell id="T2E0EPtnHiAVH1xd0ist-10" value="&lt;font style=&quot;font-size: 14px;&quot;&gt;crm_cust_info&lt;/font&gt;" style="swimlane;fontStyle=0;childLayout=stackLayout;horizontal=1;startSize=30;horizontalStack=0;resizeParent=1;resizeParentMax=0;resizeLast=0;collapsible=1;marginBottom=0;whiteSpace=wrap;html=1;rounded=1;fillColor=#dae8fc;strokeColor=#6c8ebf;" parent="1" vertex="1">
          <mxGeometry x="-150" y="240" width="170" height="110" as="geometry" />
        </mxCell>
        <mxCell id="T2E0EPtnHiAVH1xd0ist-11" value="&lt;b&gt;&lt;font style=&quot;font-size: 13px;&quot;&gt;prd_key&lt;/font&gt;&lt;/b&gt;" style="text;strokeColor=#6c8ebf;fillColor=none;align=left;verticalAlign=middle;spacingLeft=4;spacingRight=4;overflow=hidden;points=[[0,0.5],[1,0.5]];portConstraint=eastwest;rotatable=0;whiteSpace=wrap;html=1;" parent="T2E0EPtnHiAVH1xd0ist-10" vertex="1">
          <mxGeometry y="30" width="170" height="30" as="geometry" />
        </mxCell>
        <mxCell id="T2E0EPtnHiAVH1xd0ist-13" value="&lt;b&gt;&lt;font style=&quot;font-size: 13px;&quot;&gt;cst_id&lt;/font&gt;&lt;/b&gt;" style="text;strokeColor=none;fillColor=none;align=left;verticalAlign=middle;spacingLeft=4;spacingRight=4;overflow=hidden;points=[[0,0.5],[1,0.5]];portConstraint=eastwest;rotatable=0;whiteSpace=wrap;html=1;" parent="T2E0EPtnHiAVH1xd0ist-10" vertex="1">
          <mxGeometry y="60" width="170" height="30" as="geometry" />
        </mxCell>
        <mxCell id="oE6MfMjiElKP3dV24xXb-7" value="&lt;font style=&quot;font-size: 16px;&quot;&gt;&lt;b&gt;Sales&lt;/b&gt;&lt;/font&gt;" style="text;html=1;strokeColor=#36393d;fillColor=#ffff88;align=center;verticalAlign=middle;whiteSpace=wrap;overflow=hidden;" vertex="1" parent="T2E0EPtnHiAVH1xd0ist-10">
          <mxGeometry y="90" width="170" height="20" as="geometry" />
        </mxCell>
        <mxCell id="T2E0EPtnHiAVH1xd0ist-12" value="&lt;font style=&quot;font-size: 13px;&quot;&gt;Transactional Records about Sales &amp;amp; Orders&lt;/font&gt;" style="text;html=1;align=center;verticalAlign=middle;whiteSpace=wrap;rounded=0;" parent="1" vertex="1">
          <mxGeometry x="-200" y="210" width="260" height="30" as="geometry" />
        </mxCell>
        <mxCell id="T2E0EPtnHiAVH1xd0ist-15" style="edgeStyle=orthogonalEdgeStyle;rounded=0;orthogonalLoop=1;jettySize=auto;html=1;entryX=0;entryY=0.5;entryDx=0;entryDy=0;" parent="1" source="T2E0EPtnHiAVH1xd0ist-13" target="T2E0EPtnHiAVH1xd0ist-3" edge="1">
          <mxGeometry relative="1" as="geometry" />
        </mxCell>
        <mxCell id="T2E0EPtnHiAVH1xd0ist-16" style="edgeStyle=orthogonalEdgeStyle;rounded=0;orthogonalLoop=1;jettySize=auto;html=1;entryX=0;entryY=0.5;entryDx=0;entryDy=0;" parent="1" source="T2E0EPtnHiAVH1xd0ist-11" target="T2E0EPtnHiAVH1xd0ist-8" edge="1">
          <mxGeometry relative="1" as="geometry" />
        </mxCell>
        <mxCell id="8Cmp22PP6JHMid2Gr0Us-8" value="&lt;font style=&quot;font-size: 14px;&quot;&gt;erp_cust_az12&lt;/font&gt;" style="swimlane;fontStyle=0;childLayout=stackLayout;horizontal=1;startSize=30;horizontalStack=0;resizeParent=1;resizeParentMax=0;resizeLast=0;collapsible=1;marginBottom=0;whiteSpace=wrap;html=1;rounded=1;fillColor=#fff2cc;strokeColor=#d6b656;" parent="1" vertex="1">
          <mxGeometry x="455" y="310" width="170" height="80" as="geometry" />
        </mxCell>
        <mxCell id="8Cmp22PP6JHMid2Gr0Us-9" value="&lt;b&gt;&lt;font style=&quot;font-size: 13px;&quot;&gt;cid&lt;/font&gt;&lt;/b&gt;" style="text;strokeColor=none;fillColor=none;align=left;verticalAlign=middle;spacingLeft=4;spacingRight=4;overflow=hidden;points=[[0,0.5],[1,0.5]];portConstraint=eastwest;rotatable=0;whiteSpace=wrap;html=1;" parent="8Cmp22PP6JHMid2Gr0Us-8" vertex="1">
          <mxGeometry y="30" width="170" height="30" as="geometry" />
        </mxCell>
        <mxCell id="oE6MfMjiElKP3dV24xXb-5" value="&lt;font style=&quot;font-size: 16px;&quot;&gt;&lt;b&gt;Customer&lt;/b&gt;&lt;/font&gt;" style="text;html=1;strokeColor=#82b366;fillColor=#d5e8d4;align=center;verticalAlign=middle;whiteSpace=wrap;overflow=hidden;" vertex="1" parent="8Cmp22PP6JHMid2Gr0Us-8">
          <mxGeometry y="60" width="170" height="20" as="geometry" />
        </mxCell>
        <mxCell id="8Cmp22PP6JHMid2Gr0Us-10" value="&lt;font style=&quot;font-size: 13px;&quot;&gt;Extra Customer Information (BirthDate)&lt;/font&gt;" style="text;html=1;align=center;verticalAlign=middle;whiteSpace=wrap;rounded=0;" parent="1" vertex="1">
          <mxGeometry x="425" y="280" width="230" height="30" as="geometry" />
        </mxCell>
        <mxCell id="8Cmp22PP6JHMid2Gr0Us-11" value="&lt;font style=&quot;font-size: 14px;&quot;&gt;erp_loc_a101&lt;/font&gt;" style="swimlane;fontStyle=0;childLayout=stackLayout;horizontal=1;startSize=30;horizontalStack=0;resizeParent=1;resizeParentMax=0;resizeLast=0;collapsible=1;marginBottom=0;whiteSpace=wrap;html=1;rounded=1;fillColor=#fff2cc;strokeColor=#d6b656;" parent="1" vertex="1">
          <mxGeometry x="455" y="440" width="170" height="80" as="geometry" />
        </mxCell>
        <mxCell id="8Cmp22PP6JHMid2Gr0Us-12" value="&lt;b&gt;&lt;font style=&quot;font-size: 13px;&quot;&gt;cid&lt;/font&gt;&lt;/b&gt;" style="text;strokeColor=none;fillColor=none;align=left;verticalAlign=middle;spacingLeft=4;spacingRight=4;overflow=hidden;points=[[0,0.5],[1,0.5]];portConstraint=eastwest;rotatable=0;whiteSpace=wrap;html=1;" parent="8Cmp22PP6JHMid2Gr0Us-11" vertex="1">
          <mxGeometry y="30" width="170" height="30" as="geometry" />
        </mxCell>
        <mxCell id="oE6MfMjiElKP3dV24xXb-4" value="&lt;font style=&quot;font-size: 16px;&quot;&gt;&lt;b&gt;Customer&lt;/b&gt;&lt;/font&gt;" style="text;html=1;strokeColor=#82b366;fillColor=#d5e8d4;align=center;verticalAlign=middle;whiteSpace=wrap;overflow=hidden;" vertex="1" parent="8Cmp22PP6JHMid2Gr0Us-11">
          <mxGeometry y="60" width="170" height="20" as="geometry" />
        </mxCell>
        <mxCell id="8Cmp22PP6JHMid2Gr0Us-13" value="&lt;font style=&quot;font-size: 13px;&quot;&gt;Location of Customer (Country)&lt;/font&gt;" style="text;html=1;align=center;verticalAlign=middle;whiteSpace=wrap;rounded=0;" parent="1" vertex="1">
          <mxGeometry x="425" y="410" width="230" height="30" as="geometry" />
        </mxCell>
        <mxCell id="8Cmp22PP6JHMid2Gr0Us-16" style="edgeStyle=orthogonalEdgeStyle;rounded=0;orthogonalLoop=1;jettySize=auto;html=1;entryX=0;entryY=0.5;entryDx=0;entryDy=0;" parent="1" source="8Cmp22PP6JHMid2Gr0Us-15" target="8Cmp22PP6JHMid2Gr0Us-9" edge="1">
          <mxGeometry relative="1" as="geometry" />
        </mxCell>
        <mxCell id="8Cmp22PP6JHMid2Gr0Us-17" style="edgeStyle=orthogonalEdgeStyle;rounded=0;orthogonalLoop=1;jettySize=auto;html=1;entryX=0;entryY=0.5;entryDx=0;entryDy=0;" parent="1" source="8Cmp22PP6JHMid2Gr0Us-15" target="8Cmp22PP6JHMid2Gr0Us-12" edge="1">
          <mxGeometry relative="1" as="geometry" />
        </mxCell>
        <mxCell id="8Cmp22PP6JHMid2Gr0Us-18" value="&lt;font style=&quot;font-size: 14px;&quot;&gt;erp_px_cat_g1v2&lt;/font&gt;" style="swimlane;fontStyle=0;childLayout=stackLayout;horizontal=1;startSize=30;horizontalStack=0;resizeParent=1;resizeParentMax=0;resizeLast=0;collapsible=1;marginBottom=0;whiteSpace=wrap;html=1;rounded=1;fillColor=#fff2cc;strokeColor=#d6b656;" parent="1" vertex="1">
          <mxGeometry x="455" y="180" width="170" height="80" as="geometry" />
        </mxCell>
        <mxCell id="8Cmp22PP6JHMid2Gr0Us-19" value="&lt;b&gt;&lt;font style=&quot;font-size: 13px;&quot;&gt;ID&lt;/font&gt;&lt;/b&gt;" style="text;strokeColor=none;fillColor=none;align=left;verticalAlign=middle;spacingLeft=4;spacingRight=4;overflow=hidden;points=[[0,0.5],[1,0.5]];portConstraint=eastwest;rotatable=0;whiteSpace=wrap;html=1;" parent="8Cmp22PP6JHMid2Gr0Us-18" vertex="1">
          <mxGeometry y="30" width="170" height="30" as="geometry" />
        </mxCell>
        <mxCell id="oE6MfMjiElKP3dV24xXb-3" value="&lt;font style=&quot;font-size: 16px;&quot;&gt;&lt;b&gt;Product&lt;/b&gt;&lt;/font&gt;" style="text;html=1;strokeColor=#b85450;fillColor=#f8cecc;align=center;verticalAlign=middle;whiteSpace=wrap;overflow=hidden;" vertex="1" parent="8Cmp22PP6JHMid2Gr0Us-18">
          <mxGeometry y="60" width="170" height="20" as="geometry" />
        </mxCell>
        <mxCell id="8Cmp22PP6JHMid2Gr0Us-20" value="&lt;font style=&quot;font-size: 13px;&quot;&gt;Extra Product Information (Category)&lt;/font&gt;" style="text;html=1;align=center;verticalAlign=middle;whiteSpace=wrap;rounded=0;" parent="1" vertex="1">
          <mxGeometry x="425" y="150" width="230" height="30" as="geometry" />
        </mxCell>
        <mxCell id="8Cmp22PP6JHMid2Gr0Us-21" style="edgeStyle=orthogonalEdgeStyle;rounded=0;orthogonalLoop=1;jettySize=auto;html=1;" parent="1" source="T2E0EPtnHiAVH1xd0ist-8" target="8Cmp22PP6JHMid2Gr0Us-19" edge="1">
          <mxGeometry relative="1" as="geometry" />
        </mxCell>
        <mxCell id="8Cmp22PP6JHMid2Gr0Us-22" value="" style="rounded=1;whiteSpace=wrap;html=1;arcSize=3;fillColor=none;dashed=1;strokeColor=light-dark(#6c6a6a, #ededed);" parent="1" vertex="1">
          <mxGeometry x="-210" y="150" width="560" height="390" as="geometry" />
        </mxCell>
        <mxCell id="8Cmp22PP6JHMid2Gr0Us-23" value="&lt;font style=&quot;font-size: 16px;&quot;&gt;CRM&lt;/font&gt;" style="text;html=1;align=center;verticalAlign=middle;whiteSpace=wrap;rounded=1;fillColor=#dae8fc;fontStyle=1;strokeColor=#6c8ebf;" parent="1" vertex="1">
          <mxGeometry y="120" width="70" height="30" as="geometry" />
        </mxCell>
        <mxCell id="8Cmp22PP6JHMid2Gr0Us-24" value="" style="rounded=1;whiteSpace=wrap;html=1;arcSize=3;fillColor=none;dashed=1;strokeColor=light-dark(#707070, #ededed);" parent="1" vertex="1">
          <mxGeometry x="375" y="150" width="305" height="390" as="geometry" />
        </mxCell>
        <mxCell id="8Cmp22PP6JHMid2Gr0Us-25" value="&lt;font style=&quot;font-size: 16px;&quot;&gt;ERP&lt;/font&gt;" style="text;html=1;align=center;verticalAlign=middle;whiteSpace=wrap;rounded=1;fillColor=#fff2cc;fontStyle=1;strokeColor=#d6b656;" parent="1" vertex="1">
          <mxGeometry x="492.5" y="120" width="70" height="30" as="geometry" />
        </mxCell>
      </root>
    </mxGraphModel>
  </diagram>
</mxfile>
